<?xml version="1.0" encoding="utf-8"?>
<!-- Generator: Adobe Illustrator 19.0.0, SVG Export Plug-In . SVG Version: 6.00 Build 0)  -->
<svg version="1.1" id="icons" xmlns="http://www.w3.org/2000/svg" xmlns:xlink="http://www.w3.org/1999/xlink" x="0px" y="0px"
	 viewBox="-49 141 512 512" style="enable-background:new -49 141 512 512;" xml:space="preserve">
<style type="text/css">
	.st0{fill:#FFFFFF;}
</style>
<path class="st0" d="M75,469c15.4,0,28-12.6,28-28s-12.6-28-28-28s-28,12.6-28,28S59.6,469,75,469z M75,429c6.6,0,12,5.4,12,12
	s-5.4,12-12,12s-12-5.4-12-12S68.4,429,75,429z"/>
<path class="st0" d="M407,645v-32c0-4.4-3.6-8-8-8c-4.4,0-8-3.6-8-8c0-4.4-3.6-8-8-8H31c-4.4,0-8,3.6-8,8c0,4.4-3.6,8-8,8
	c-4.4,0-8,3.6-8,8v32c0,4.4,3.6,8,8,8s8-3.6,8-8v-25.5c6.8-2.4,12.1-7.7,14.5-14.5h339c2.4,6.8,7.7,12.1,14.5,14.5V645
	c0,4.4,3.6,8,8,8S407,649.4,407,645L407,645z"/>
<path class="st0" d="M-41,565h8v80c0,4.4,3.6,8,8,8s8-3.6,8-8v-80h448v80c0,4.4,3.6,8,8,8s8-3.6,8-8v-80h8c4.4,0,8-3.6,8-8v-32
	c0-4.4-3.6-8-8-8h-8v-48c0-30.9-25.1-56-56-56c0,0,0,0,0,0l-24,0v-13c28.6-16.6,48-47.5,48-83c0,0,0,0,0,0v-72
	c0-23.7-17.3-43.5-40-47.3V173c0-4.4-3.6-8-8-8h-64c0,0-0.1,0-0.1,0c-44.1,0.1-79.9,35.9-79.9,80v72c0,35.4,19.4,66.4,48,83v13
	l-24,0c0,0,0,0,0,0c-30.9,0-56,25.1-56,56v16h-8V373c0-13.2-10.8-24-24-24H-9c-13.2,0-24,10.8-24,24v136c0,2.8,0.6,5.5,1.5,8H-41
	c-4.4,0-8,3.6-8,8v32C-49,561.4-45.4,565-41,565z M303,181C303,181,303,181,303,181l56,0v24c0,4.4,3.6,8,8,8c17.6,0,32,14.4,32,32
	v20.7l-10.3-10.3c-0.1-0.1-0.2-0.1-0.4-0.2c-0.4-0.4-0.9-0.6-1.4-0.9c-0.4-0.2-0.8-0.5-1.3-0.7c-0.5-0.2-1-0.2-1.5-0.3
	c-0.5-0.1-1-0.2-1.5-0.2c-0.5,0-0.9,0.2-1.4,0.3c-0.5,0.1-1.1,0.2-1.6,0.5c-0.1,0.1-0.3,0.1-0.4,0.1c-0.3,0.2-28.3,15-60.2,15
	c-31.7,0-59.9-14.9-60.2-15c-0.1-0.1-0.3-0.1-0.4-0.1c-0.5-0.2-1-0.4-1.6-0.5c-0.5-0.1-1-0.3-1.5-0.3c-0.5,0-1,0.1-1.5,0.2
	c-0.5,0.1-1,0.1-1.5,0.3c-0.4,0.2-0.8,0.4-1.3,0.7c-0.5,0.3-1,0.5-1.4,0.9c-0.1,0.1-0.2,0.1-0.4,0.2L239,265.7V245
	C239,209.7,267.7,181,303,181L303,181z M239,317v-28.7l17.6-17.6c10.5,4.8,34.8,14.3,62.4,14.3s51.9-9.6,62.4-14.3l17.6,17.6V317
	c0,44.1-35.9,80-80,80S239,361.1,239,317z M319,413c11.2,0,22-2,32-5.6v10.3l-10.2,10.2l-19.3-6.4c-0.3-0.1-0.6,0-0.9-0.1
	c-0.5-0.1-1.1-0.2-1.7-0.2c-0.6,0-1.1,0.1-1.7,0.2c-0.3,0.1-0.6,0-0.9,0.1l-19.3,6.4L287,417.7v-10.3C297,411,307.8,413,319,413
	L319,413z M207,469c0-22.1,17.9-40,40-40l28.7,0l13.7,13.6c0.1,0.1,0.3,0.2,0.4,0.3c0.5,0.5,1.1,0.8,1.7,1.2
	c0.3,0.1,0.5,0.3,0.8,0.4c0.9,0.3,1.8,0.5,2.7,0.5c0.8,0,1.7-0.1,2.5-0.4l21.5-7.2l21.5,7.2c0.8,0.3,1.7,0.4,2.5,0.4
	c1,0,1.9-0.2,2.7-0.5c0.3-0.1,0.5-0.3,0.8-0.4c0.6-0.3,1.2-0.7,1.7-1.2c0.1-0.1,0.3-0.2,0.4-0.3l13.7-13.6l28.7,0
	c22.1,0,40,17.9,40,40v48H261.5c0.9-2.5,1.5-5.2,1.5-8v-16c0-4.4-3.6-8-8-8h-48V469z M247,501v8c0,4.4-3.5,7.9-7.8,8h-57.6
	c0.9-2.5,1.5-5.1,1.5-7.9c0,0,0,0,0-0.1v-8L247,501z M-9,365h168c4.4,0,8,3.6,8,8v120c0,0,0,0,0,0s0,0,0,0V509c0,0,0,0,0,0
	c0,4.4-3.5,7.9-7.8,8H-9.1c-4.4,0-7.9-3.6-7.9-8V373C-17,368.6-13.4,365-9,365L-9,365z M-33,533h15.9c0,0,0,0,0.1,0h167.9
	c0,0,0.1,0,0.1,0h88c0.1,0,0.2,0,0.3,0h199.5c0.1,0,0.1,0,0.2,0s0.1,0,0.2,0h7.8v16H-33L-33,533z"/>
<path class="st0" d="M319.2,509c4.4,0,8-3.6,8-8s-3.6-8-8-8h-0.1c-4.4,0-8,3.6-8,8S314.8,509,319.2,509L319.2,509z"/>
<path class="st0" d="M319.2,477c4.4,0,8-3.6,8-8s-3.6-8-8-8h-0.1c-4.4,0-8,3.6-8,8S314.8,477,319.2,477L319.2,477z"/>
<path class="st0" d="M67.3,324.6l6.1,6.1c1.5,1.5,3.5,2.3,5.7,2.3c2.1,0,4.2-0.8,5.7-2.3l7.3-7.3c43.6-8.1,75-45.7,75-90.3
	c0-50.7-41.3-92-92-92s-92,41.3-92,92C-17,281,19.8,320.6,67.3,324.6L67.3,324.6z M75,157c41.9,0,76,34.1,76,76
	c0,37.6-27,69.1-64.1,75c-1.7,0.3-3.2,1.1-4.4,2.2l-3.5,3.5l-2.5-2.5c-1.4-1.4-3.3-2.2-5.3-2.3C30.7,306.8-1,273.5-1,233
	C-1,191.1,33.1,157,75,157L75,157z"/>
<path class="st0" d="M67.4,227.7c1,1,2.3,1.5,3.7,1.5s2.7-0.5,3.7-1.5l12.9-12.9c0,0,0,0,0.1,0c1-1,1.5-2.4,1.5-3.7
	s-0.5-2.7-1.5-3.7c0,0,0,0-0.1,0l-12.9-12.9c-2-2-5.3-2-7.4,0c-2,2-2,5.3,0,7.4l9.3,9.3l-9.3,9.3C65.4,222.4,65.4,225.7,67.4,227.7
	L67.4,227.7z"/>
<path class="st0" d="M25.8,227.7c1,1,2.3,1.5,3.7,1.5s2.7-0.5,3.7-1.5c2-2,2-5.3,0-7.4l-9.3-9.3l9.3-9.3c2-2,2-5.3,0-7.4
	c-2-2-5.3-2-7.4,0l-12.9,12.9c0,0,0,0-0.1,0c-1,1-1.5,2.4-1.5,3.7c0,1.3,0.5,2.7,1.5,3.7c0,0,0,0,0.1,0L25.8,227.7z"/>
<path class="st0" d="M63,189.2c0.9-2.7-0.6-5.7-3.3-6.6c-2.7-0.9-5.7,0.6-6.6,3.3l-15.6,46.8c-0.9,2.7,0.6,5.7,3.3,6.6h0
	c0.5,0.2,1.1,0.3,1.6,0.3c2.2,0,4.2-1.4,4.9-3.6"/>
<g>
	<g>
		<path class="st0" d="M72.9,272.9c1.2-0.8,2.3-1.7,3.3-2.8l3.5,2l3.1-5.4l-3.4-2c0.4-1.3,0.7-2.8,0.7-4.2l3.9-0.7l-1.1-6.2
			l-3.9,0.7c-0.5-1.3-1.3-2.6-2.1-3.7l2.6-3.1l-4.8-4l-2.6,3c-1.2-0.7-2.6-1.2-4-1.5v-4h-6.3v4c-1.4,0.3-2.8,0.8-4,1.5l-2.6-3
			l-4.8,4l2.6,3.1c-0.9,1.1-1.6,2.4-2.1,3.7l-3.9-0.7l-1.1,6.2l3.9,0.7c0,1.5,0.3,2.9,0.7,4.2l-3.4,2l3.1,5.4l3.5-2
			c1,1.1,2.1,2,3.3,2.8l-1.4,3.7l5.9,2.1l1.4-3.7c0.7,0.1,1.4,0.2,2.1,0.2s1.4-0.1,2.1-0.2l1.4,3.7l5.9-2.1L72.9,272.9z M64.8,268
			c-4.4,0-8-3.6-8-8c0-4.4,3.6-8,8-8s8,3.6,8,8C72.9,264.4,69.3,268,64.8,268z"/>
		<path class="st0" d="M99.9,277.6l-2.7,0.9c-0.5-0.9-1.2-1.7-1.9-2.4l1.5-2.4l-3.8-2.4l-1.5,2.4c-1-0.4-2-0.6-3-0.6l-0.4-2.8
			l-4.5,0.6l0.4,2.8c-1,0.4-1.9,0.8-2.7,1.4l-2.1-1.9l-3,3.3l2.1,1.9c-0.5,0.9-0.9,1.8-1.2,2.8l-2.8-0.1l-0.2,4.5l2.8,0.1
			c0.2,1,0.5,2,0.9,2.9l-2.2,1.8l2.8,3.5l2.2-1.8c0.8,0.7,1.7,1.2,2.6,1.6l-0.6,2.8l4.4,0.9l0.6-2.8c0.5,0,1,0,1.5-0.1
			c0.5-0.1,1-0.2,1.5-0.3l1.3,2.5l4-2.1l-1.3-2.5c0.8-0.7,1.5-1.4,2.1-2.3l2.6,1.1l1.7-4.2l-2.6-1.1c0.2-1,0.2-2,0.1-3.1l2.7-0.9
			L99.9,277.6z M88.5,289.6c-3.1,0.4-6-1.8-6.5-4.9c-0.4-3.1,1.8-6,4.9-6.5c3.1-0.4,6,1.8,6.5,4.9C93.9,286.3,91.7,289.2,88.5,289.6
			z"/>
		<path class="st0" d="M106,262.1l0.1-3.5l-2.2-0.1c-0.1-0.8-0.4-1.6-0.8-2.3l1.8-1.4l-2.2-2.8l-1.8,1.4c-0.6-0.5-1.3-0.9-2.1-1.3
			l0.5-2.2l-3.5-0.7l-0.5,2.2c-0.8,0-1.6,0.1-2.4,0.3l-1.1-2l-3.1,1.7l1.1,2c-0.6,0.5-1.2,1.1-1.6,1.8l-2.1-0.8l-1.3,3.3l2.1,0.8
			c-0.1,0.8-0.2,1.6-0.1,2.4l-2.1,0.7l1.1,3.4l2.1-0.7c0.4,0.7,0.9,1.4,1.5,1.9l-1.2,1.9l3,1.9l1.2-1.9c0.8,0.3,1.6,0.4,2.4,0.5
			l0.3,2.2l3.5-0.5l-0.3-2.2c0.4-0.1,0.7-0.3,1.1-0.5c0.4-0.2,0.7-0.4,1-0.7l1.7,1.5l2.4-2.7l-1.7-1.5c0.4-0.7,0.7-1.5,0.9-2.3
			L106,262.1z M97.5,264c-2.2,1.2-5,0.4-6.1-1.8c-1.2-2.2-0.4-5,1.8-6.1c2.2-1.2,5-0.4,6.1,1.8C100.5,260,99.7,262.8,97.5,264z"/>
	</g>
</g>
</svg>
