<?xml version="1.0" encoding="utf-8"?>
<!-- Generator: Adobe Illustrator 19.0.0, SVG Export Plug-In . SVG Version: 6.00 Build 0)  -->
<svg version="1.1" id="Layer_1" xmlns="http://www.w3.org/2000/svg" xmlns:xlink="http://www.w3.org/1999/xlink" x="0px" y="0px"
	 viewBox="-49 141 512 512" style="enable-background:new -49 141 512 512;" xml:space="preserve">
<style type="text/css">
	.st0{fill:#2653D3;}
</style>
<g>
	<path class="st0" d="M375,205h-88v-16c0-26.5-21.5-48-48-48h-64c-26.5,0-48,21.5-48,48v16H39c-22.1,0-40,17.9-40,40v56
		c0,8.8,7.2,16,16,16h8.7l13.8,290.3c1.2,25.6,22.3,45.7,47.9,45.7h243c25.7,0,46.7-20.1,47.9-45.7L390.3,317h8.7
		c8.8,0,16-7.2,16-16v-56C415,222.9,397.1,205,375,205L375,205z M159,189c0-8.8,7.2-16,16-16h64c8.8,0,16,7.2,16,16v16h-96V189z
		 M31,245c0-4.4,3.6-8,8-8h336c4.4,0,8,3.6,8,8v40c-4.9,0-331.6,0-352,0V245z M344.5,605.8c-0.4,8.5-7.4,15.2-16,15.2h-243
		c-8.6,0-15.6-6.7-16-15.2L55.8,317h302.4L344.5,605.8z"/>
	<path class="st0" d="M207,589c8.8,0,16-7.2,16-16V365c0-8.8-7.2-16-16-16s-16,7.2-16,16v208C191,581.8,198.2,589,207,589z"/>
	<path class="st0" d="M287,589c8.8,0,16-7.2,16-16V365c0-8.8-7.2-16-16-16s-16,7.2-16,16v208C271,581.8,278.2,589,287,589z"/>
	<path class="st0" d="M127,589c8.8,0,16-7.2,16-16V365c0-8.8-7.2-16-16-16s-16,7.2-16,16v208C111,581.8,118.2,589,127,589z"/>
</g>
</svg>
