<?xml version="1.0" encoding="utf-8"?>
<!-- Generator: Adobe Illustrator 19.0.0, SVG Export Plug-In . SVG Version: 6.00 Build 0)  -->
<svg version="1.1" id="Calque_1" xmlns="http://www.w3.org/2000/svg" xmlns:xlink="http://www.w3.org/1999/xlink" x="0px" y="0px"
	 viewBox="0 288 612 169" style="enable-background:new 0 288 612 169;" xml:space="preserve">
<style type="text/css">
	.st0{fill:#75CD38;}
	.st1{fill:#0772C7;}
	.st2{fill:#9E9E9E;}
</style>
<path class="st0" d="M31.7,358.4l0.6,25.1h9.6l-0.6-47.3l4.8-0.3l-9-14.6l-9,14.3l4.5,0.6l-0.3,10.5c-38.3,29.5-17.2,92.7,33.5,84.1
	v-9.5C30.8,432.5,6.1,386.3,31.7,358.4z"/>
<path class="st1" d="M82,410.8v-25.4l-10.7-0.3l0.8,49.5l-3.9-0.6l8.4,15.6l8.4-14.9l-4.2-1.3v-9.5c48.4-22.9,25.1-96.5-33.6-84.7
	l-0.2,9C88.3,340,115.9,383.8,82,410.8z"/>
<polygon class="st2" points="51.8,363.2 51.6,407 61.1,407 61.3,363 "/>
<path class="st2" d="M209.6,344.6c-29.2-0.7-60.4-2.2-69,0c-26.9,3-28,39.9-4.9,48.3l53.2,1.2c2.6,3.1,4.7,8.1-1.3,12.6
	c-0.1,0-57-0.5-57-0.5l-13.5,21.4l73,0.2c28.7-4.3,27.4-44.8,5.9-50.5l-52.8,0.2c-2.2-0.2-0.4-5.6-0.2-8.1l0.3-2.8
	c-0.2,0.3-0.3,0.4-0.3,0.4l6.8-1.6l46.2-0.5L209.6,344.6z"/>
<path class="st2" d="M217.6,426.7l49.5-80.7c6.6-5.2,12.3-5.7,16.9-0.3l49.8,82.2h-80.5l9.6-21.6c7.8,0.1,16.1,1.1,26.9,0
	c0.9-0.1,1.3-2.3,0.8-3.1l-15.2-28.5c-0.6-1.1-1.9-1.1-2.5,0l-29.7,53.9L217.6,426.7z"/>
<path class="st2" d="M342.8,425.8l20.8-79.1c0.1-0.3,0.2-0.5,0.4-0.7c4.8-4,9.9-5.2,15.5-0.4c0.1,0.1,0.3,0.3,0.3,0.4l26.1,52.7
	c0.4,0.9,1.6,0.9,2,0l25.6-53.1c0.1-0.2,0.3-0.4,0.4-0.5c5.4-3.6,10.7-3.5,15.7,1.6c0.2,0.2,0.3,0.4,0.4,0.6l20.6,79.8
	c0.2,0.9-0.4,1.7-1.2,1.7l-19.9-1.1c-0.5,0-1-0.4-1.1-1l-9.6-46.5c-0.2-1.2-1.7-1.4-2.2-0.3l-21.2,46.5c-0.1,0.2-0.3,0.4-0.5,0.6
	c-6.1,4-11.8,3.9-17.2-0.5c-0.2-0.1-0.3-0.3-0.4-0.5L376,380.6c-0.5-1.1-1.9-0.9-2.2,0.3L362.6,427c-0.1,0.6-0.6,1-1.1,1l-17.6-0.4
	C343.1,427.5,342.6,426.6,342.8,425.8z"/>
<path class="st2" d="M480.8,427.2l20.8-79.1c0.1-0.3,0.2-0.5,0.4-0.7c4.8-4,9.9-5.2,15.5-0.4c0.1,0.1,0.3,0.3,0.3,0.4l26.1,52.7
	c0.4,0.9,1.6,0.9,2,0l25.6-53.1c0.1-0.2,0.3-0.4,0.4-0.5c5.4-3.6,10.7-3.5,15.7,1.6c0.2,0.2,0.3,0.4,0.4,0.6l20.6,79.8
	c0.2,0.9-0.4,1.7-1.2,1.7l-19.9-1.1c-0.5,0-1-0.4-1.1-1l-9.6-46.5c-0.2-1.2-1.7-1.4-2.2-0.3l-21.2,46.5c-0.1,0.2-0.3,0.4-0.5,0.6
	c-6.1,4-11.8,3.9-17.2-0.5c-0.2-0.1-0.3-0.3-0.4-0.5L514.2,382c-0.5-1.1-1.9-0.9-2.2,0.3l-11.4,46.1c-0.1,0.6-0.6,1-1.1,1l-17.6-0.4
	C481.1,428.9,480.6,428.1,480.8,427.2z"/>
</svg>
